<svg data-v-423bf9ae="" xmlns="http://www.w3.org/2000/svg" viewBox="0 0 268 112" class="iconLeft"><!----><!----><!----><g data-v-423bf9ae="" id="5794cf18-09c6-40df-8f03-e50451085916" fill="#361414" transform="matrix(4.838709826275912,0,0,4.838709826275912,116.81939348885462,7.070563801369481)"><path d="M7.10 13.15L8.71 13.15L5.02 3.82L3.51 3.82L-0.17 13.15L1.43 13.15L2.32 10.75L6.21 10.73ZM2.76 9.57L4.27 5.45L5.78 9.57ZM13.04 6.36C12.05 6.36 11.29 6.77 10.76 7.42L10.65 6.53L9.41 6.53L9.41 16.22L10.82 16.22L10.82 12.32C11.33 12.94 12.07 13.31 13.04 13.31C14.76 13.31 16.13 12.00 16.13 9.84C16.13 7.69 14.76 6.36 13.04 6.36ZM12.70 12.12C11.46 12.12 10.66 11.14 10.66 9.84C10.66 8.55 11.46 7.55 12.70 7.55C13.90 7.55 14.69 8.55 14.69 9.84C14.69 11.14 13.90 12.12 12.70 12.12ZM23.81 9.70C23.81 7.73 22.49 6.36 20.56 6.36C18.56 6.36 17.15 7.89 17.15 9.84C17.15 11.80 18.55 13.31 20.72 13.31C21.88 13.31 22.84 12.92 23.44 12.25L22.46 11.46C22.04 11.94 21.47 12.19 20.71 12.19C19.47 12.19 18.74 11.33 18.64 10.15L23.81 10.15ZM20.56 7.50C21.60 7.50 22.27 8.12 22.41 9.17L18.70 9.17C18.90 8.17 19.59 7.50 20.56 7.50ZM31.09 13.15L28.54 9.70L30.81 6.53L29.21 6.53L27.74 8.74L26.25 6.53L24.66 6.53L26.95 9.71L24.40 13.15L26.03 13.15L27.74 10.68L29.44 13.15Z"></path></g><defs data-v-423bf9ae=""><linearGradient data-v-423bf9ae="" gradientTransform="rotate(25)" id="56bc350e-a723-4684-885a-9e109f40f2be" x1="0%" y1="0%" x2="100%" y2="0%"><stop data-v-423bf9ae="" offset="0%" style="stop-color: rgb(240, 0, 121); stop-opacity: 1;"></stop><stop data-v-423bf9ae="" offset="100%" style="stop-color: rgb(242, 160, 65); stop-opacity: 1;"></stop></linearGradient></defs><g data-v-423bf9ae="" id="42655357-1c68-446b-b547-04fcd0842ff1" transform="matrix(1.1110999213324653,0,0,1.1110999213324653,-6.752660037942569,0.4454523167479181)" stroke="none" fill="url(#56bc350e-a723-4684-885a-9e109f40f2be)"><path d="M42.985 12.191l-6.96 12.2H21.403c-8.038 0-14.614.016-14.614.032s3.275 5.758 7.277 12.76S21.352 49.95 21.352 50c0 .042-3.283 5.816-7.286 12.818S6.79 75.561 6.79 75.576c0 .018 6.576.033 14.614.033h14.622l6.96 12.2c3.827 6.7 6.977 12.191 7.002 12.191s3.175-5.49 7.002-12.191l6.96-12.2h14.623c8.038 0 14.614-.015 14.614-.033 0-.015-3.276-5.756-7.278-12.758-4.003-7.002-7.286-12.776-7.286-12.818 0-.05 3.283-5.815 7.286-12.817 4.002-7.002 7.278-12.743 7.278-12.76s-6.576-.033-14.614-.033H63.95l-6.96-12.199C53.162 5.49 50.013.001 49.987.001s-3.175 5.489-7.002 12.19zm16.57 7.913c5.238 9.174 9.542 16.711 9.55 16.744.017.042-8.415.075-19.118.075-12.115 0-19.134-.033-19.117-.083.058-.175 19.075-33.423 19.117-33.423.026.009 4.328 7.512 9.568 16.687zm-24.54 6.032c-.126.318-6.142 10.73-6.218 10.762-.083.034-17.22-10.528-17.446-10.762-.05-.041 4.495-.075 11.806-.075 6.543 0 11.874.034 11.857.075zm53.609 0c-.185.184-17.33 10.787-17.43 10.787-.084-.008-6.108-10.419-6.233-10.787-.017-.041 4.394-.075 11.856-.075 7.22 0 11.857.034 11.807.075zM19.355 33.08c6.234 3.869 8.423 5.272 8.457 5.406.041.142-.636 1.387-2.683 4.972-1.503 2.631-2.74 4.796-2.757 4.813-.008.008-2.674-4.62-5.916-10.303-3.994-6.994-5.832-10.286-5.706-10.21.108.05 3.977 2.448 8.605 5.322zm64.205 4.821a3076.404 3076.404 0 0 1-5.908 10.32c-.033.041-1.295-2.098-2.806-4.747-2.666-4.662-2.742-4.821-2.624-5.03.075-.142 2.916-1.955 8.64-5.506 4.678-2.908 8.522-5.289 8.53-5.289.017 0-2.615 4.612-5.831 10.252zm-15.232.852c-.268.243-18.308 11.373-18.39 11.339-.134-.05-18.183-11.247-18.283-11.339-.05-.042 7.762-.075 18.332-.075 10.905 0 18.383.033 18.341.075zm-28.25 7.194l9.073 5.632v20.814l-9.073-15.875c-4.989-8.732-9.125-15.985-9.2-16.11-.1-.21-.1-.234 0-.167.067.033 4.203 2.607 9.2 5.706zm20.104 10.12a8147.28 8147.28 0 0 1-9.2 16.076c-.151.242-.159.058-.159-10.153V51.588l9.174-5.69c5.04-3.134 9.175-5.69 9.191-5.674.017.017-4.044 7.144-9.006 15.842zM38.49 57.144l9.575 16.752-19.15.025c-10.529.008-19.16 0-19.185-.016-.017-.025 4.127-7.328 9.216-16.236 10.553-18.465 9.91-17.346 9.943-17.304.017.017 4.337 7.57 9.6 16.779zm42.246.033c5.239 9.181 9.517 16.71 9.5 16.728-.016.016-8.64.024-19.168.016l-19.134-.026 9.576-16.769c5.263-9.216 9.6-16.736 9.626-16.71.033.033 4.352 7.57 9.6 16.76zM49.11 75.71c.025.059.033 4.445.025 9.75l-.025 9.65-5.573-9.75-5.574-9.752h5.557c4.37 0 5.565.026 5.59.102zm7.327 9.65l-5.573 9.75-.024-9.566c-.009-5.256 0-9.643.024-9.752l.042-.184h11.105l-5.574 9.752z"></path></g><!----></svg>